# xmcd
#
# Track frame offsets: 
#        150
#        1507
#        22701
#        30400
#        48504
#        63845
#        80826
#        95819
#        112071
#        123185
#        138604
#        152132
#        171385
#        190588
#        209073
#        218298
#
# Disc length: 3142 seconds
#
# Revision: 0
# Processed by: cddbd v1.5.2PL0 Copyright (c) Steve Scherf et al.
# Submitted via: ExactAudioCopy v1.0b3
#
DISCID=d10c4410
DTITLE=Billy's band - Чужие-2
DYEAR=2012
DGENRE=Blues - Rock - Jazz
TTITLE0=Intro
TTITLE1=One Way Ticket To The Blues
TTITLE2=Zah Zuh Zaz
TTITLE3=Минус 30
TTITLE4=Let It Snow
TTITLE5=Pandora's Box
TTITLE6=I'm Only Sleeping
TTITLE7=The Long And Winding Road
TTITLE8=Why Don't We Do It In The Road
TTITLE9=St. James Infirmary Blues
TTITLE10=All's Rock 'n' Roll
TTITLE11=Бродяга
TTITLE12=Where Are You
TTITLE13=На порядок выше
TTITLE14=St. Louis Blues
TTITLE15=Вариации на темы песен Billy's band
EXTD=Rip by ley-barmaley
EXTT0=
EXTT1=
EXTT2=
EXTT3=
EXTT4=
EXTT5=
EXTT6=
EXTT7=
EXTT8=
EXTT9=
EXTT10=
EXTT11=
EXTT12=
EXTT13=
EXTT14=
EXTT15=
PLAYORDER=
